<?xml version="1.0" encoding="UTF-8" standalone="no"?>
<!DOCTYPE svg PUBLIC "-//W3C//DTD SVG 1.1//EN"
 "http://www.w3.org/Graphics/SVG/1.1/DTD/svg11.dtd">
<!-- Generated by graphviz version 2.22.2 (20090313.1817)
 -->
<!-- Title: getting started guide example Pages: 1 -->
<svg width="347pt" height="414pt"
 viewBox="0.00 0.00 347.00 414.00" xmlns="http://www.w3.org/2000/svg" xmlns:xlink="http://www.w3.org/1999/xlink">
<g id="graph1" class="graph" transform="scale(1 1) rotate(0) translate(4 410)">
<title>getting started guide example</title>
<polygon fill="white" stroke="white" points="-4,5 -4,-410 344,-410 344,5 -4,5"/>
<!-- overseer -->
<g id="node2" class="node"><title>overseer</title>
<text text-anchor="middle" x="48" y="-392.3" font-family="DejaVu Sans" font-size="8.00" fill="darkslategray">system coordination</text>
</g>
<!-- domains -->
<g id="node3" class="node"><title>domains</title>
<text text-anchor="middle" x="48" y="-324.3" font-family="DejaVu Sans" font-size="8.00" fill="darkslategray">domains</text>
</g>
<!-- overseer&#45;&gt;domains -->
<!-- operators -->
<g id="node4" class="node"><title>operators</title>
<text text-anchor="middle" x="48" y="-256.3" font-family="DejaVu Sans" font-size="8.00" fill="darkslategray">operators</text>
</g>
<!-- domains&#45;&gt;operators -->
<!-- gates -->
<g id="node5" class="node"><title>gates</title>
<text text-anchor="middle" x="48" y="-196.3" font-family="DejaVu Sans" font-size="8.00" fill="darkslategray">gateways</text>
</g>
<!-- operators&#45;&gt;gates -->
<!-- assets -->
<g id="node6" class="node"><title>assets</title>
<text text-anchor="middle" x="48" y="-136.3" font-family="DejaVu Sans" font-size="8.00" fill="darkslategray">assets</text>
</g>
<!-- gates&#45;&gt;assets -->
<!-- commodities -->
<g id="node7" class="node"><title>commodities</title>
<text text-anchor="middle" x="48" y="-68.3" font-family="DejaVu Sans" font-size="8.00" fill="darkslategray">commodities</text>
</g>
<!-- assets&#45;&gt;commodities -->
<!-- contexts -->
<g id="node8" class="node"><title>contexts</title>
<text text-anchor="middle" x="48" y="-8.3" font-family="DejaVu Sans" font-size="8.00" fill="darkslategray">contexts</text>
</g>
<!-- commodities&#45;&gt;contexts -->
<!-- 01 -->
<g id="node11" class="node"><title>01</title>
<polygon fill="none" stroke="slategray" points="221,-406 151,-406 151,-384 221,-384 221,-406"/>
<text text-anchor="middle" x="186" y="-392.3" font-family="DejaVu Sans" font-size="8.00" fill="darkslategray">01 • overseer</text>
</g>
<!-- 02 -->
<g id="node13" class="node"><title>02</title>
<polygon fill="none" stroke="slategray" points="243,-338 129,-338 129,-316 243,-316 243,-338"/>
<text text-anchor="middle" x="186" y="-324.3" font-family="DejaVu Sans" font-size="8.00" fill="darkslategray">02 • domain&#45;controller&#45;1</text>
</g>
<!-- 01&#45;&gt;02 -->
<g id="edge17" class="edge"><title>01&#45;&gt;02</title>
<path fill="none" stroke="#cd5b45" d="M186,-383.771C186,-374.166 186,-360.074 186,-348.333"/>
<polygon fill="#cd5b45" stroke="#cd5b45" points="189.5,-348.02 186,-338.02 182.5,-348.02 189.5,-348.02"/>
<text text-anchor="middle" x="193" y="-358.3" font-family="DejaVu Sans" font-size="8.00" fill="darkslategray"> 01</text>
</g>
<!-- 03 -->
<g id="node15" class="node"><title>03</title>
<polygon fill="none" stroke="slategray" points="208,-270 100,-270 100,-248 208,-248 208,-270"/>
<text text-anchor="middle" x="154" y="-256.3" font-family="DejaVu Sans" font-size="8.00" fill="darkslategray">03 • asop&#45;inelastic&#45;ts&#45;1</text>
</g>
<!-- 02&#45;&gt;03 -->
<g id="edge21" class="edge"><title>02&#45;&gt;03</title>
<path fill="none" stroke="orange" d="M180.716,-315.771C176.056,-305.869 169.152,-291.198 163.53,-279.25"/>
<polygon fill="orange" stroke="orange" points="166.611,-277.578 159.186,-270.02 160.277,-280.558 166.611,-277.578"/>
<text text-anchor="middle" x="179" y="-290.3" font-family="DejaVu Sans" font-size="8.00" fill="darkslategray"> 02</text>
</g>
<!-- 05 -->
<g id="node16" class="node"><title>05</title>
<polygon fill="none" stroke="slategray" points="316,-270 230,-270 230,-248 316,-248 316,-270"/>
<text text-anchor="middle" x="273" y="-256.3" font-family="DejaVu Sans" font-size="8.00" fill="darkslategray">05 • asop&#45;basic&#45;1</text>
</g>
<!-- 02&#45;&gt;05 -->
<g id="edge19" class="edge"><title>02&#45;&gt;05</title>
<path fill="none" stroke="orange" d="M200.366,-315.771C214.049,-305.077 234.848,-288.82 250.688,-276.439"/>
<polygon fill="orange" stroke="orange" points="253.178,-278.936 258.901,-270.02 248.867,-273.42 253.178,-278.936"/>
<text text-anchor="middle" x="242" y="-290.3" font-family="DejaVu Sans" font-size="8.00" fill="darkslategray"> 02</text>
</g>
<!-- 04 -->
<g id="node19" class="node"><title>04</title>
<polygon fill="none" stroke="slategray" points="194,-150 96,-150 96,-128 194,-128 194,-150"/>
<text text-anchor="middle" x="145" y="-136.3" font-family="DejaVu Sans" font-size="8.00" fill="darkslategray">04 • teas&#45;load&#45;elec&#45;1</text>
</g>
<!-- 03&#45;&gt;04 -->
<g id="edge23" class="edge"><title>03&#45;&gt;04</title>
<path fill="none" stroke="gold" d="M153.169,-247.926C151.676,-228.012 148.514,-185.851 146.591,-160.216"/>
<polygon fill="gold" stroke="gold" points="150.067,-159.758 145.829,-150.047 143.086,-160.281 150.067,-159.758"/>
<text text-anchor="middle" x="158" y="-196.3" font-family="DejaVu Sans" font-size="8.00" fill="darkslategray"> 03</text>
</g>
<!-- 06 -->
<g id="node20" class="node"><title>06</title>
<polygon fill="none" stroke="slategray" points="330,-150 230,-150 230,-128 330,-128 330,-150"/>
<text text-anchor="middle" x="280" y="-136.3" font-family="DejaVu Sans" font-size="8.00" fill="darkslategray">06 • teas&#45;windfarm&#45;1</text>
</g>
<!-- 05&#45;&gt;06 -->
<g id="edge29" class="edge"><title>05&#45;&gt;06</title>
<path fill="none" stroke="gold" d="M273.646,-247.926C274.808,-228.012 277.267,-185.851 278.762,-160.216"/>
<polygon fill="gold" stroke="gold" points="282.267,-160.234 279.356,-150.047 275.279,-159.827 282.267,-160.234"/>
<text text-anchor="middle" x="284" y="-196.3" font-family="DejaVu Sans" font-size="8.00" fill="darkslategray"> 06</text>
</g>
<!-- 04&#45;&gt;06 -->
<g id="edge25" class="edge"><title>04&#45;&gt;06</title>
<path fill="none" stroke="#4f94cd" d="M194.502,-139C202.439,-139 210.734,-139 218.903,-139"/>
<polygon fill="#4f94cd" stroke="#4f94cd" points="219.146,-142.5 229.146,-139 219.146,-135.5 219.146,-142.5"/>
<text text-anchor="middle" x="212" y="-140.8" font-family="DejaVu Sans" font-size="8.00" fill="darkslategray"> 04</text>
</g>
<!-- 07 -->
<g id="node22" class="node"><title>07</title>
<polygon fill="none" stroke="slategray" points="225,-82 151,-82 151,-60 225,-60 225,-82"/>
<text text-anchor="middle" x="188" y="-68.3" font-family="DejaVu Sans" font-size="8.00" fill="darkslategray">07 • cm&#45;elec&#45;1</text>
</g>
<!-- 04&#45;&gt;07 -->
<g id="edge27" class="edge"><title>04&#45;&gt;07</title>
<path fill="none" stroke="#7ac5cd" d="M152.101,-127.771C158.487,-117.671 168.012,-102.609 175.646,-90.537"/>
<polygon fill="#7ac5cd" stroke="#7ac5cd" points="178.645,-92.3425 181.032,-82.0199 172.729,-88.6012 178.645,-92.3425"/>
<text text-anchor="middle" x="177" y="-102.3" font-family="DejaVu Sans" font-size="8.00" fill="darkslategray"> 05</text>
</g>
<!-- 06&#45;&gt;07 -->
<g id="edge31" class="edge"><title>06&#45;&gt;07</title>
<path fill="none" stroke="#7ac5cd" d="M264.808,-127.771C250.205,-116.978 227.937,-100.518 211.13,-88.0963"/>
<polygon fill="#7ac5cd" stroke="#7ac5cd" points="213.031,-85.1492 202.909,-82.0199 208.871,-90.7784 213.031,-85.1492"/>
<text text-anchor="middle" x="247" y="-102.3" font-family="DejaVu Sans" font-size="8.00" fill="darkslategray"> 07</text>
</g>
<!-- 08 -->
<g id="node24" class="node"><title>08</title>
<polygon fill="none" stroke="slategray" points="339,-22 221,-22 221,-7.10543e-15 339,-0 339,-22"/>
<text text-anchor="middle" x="280" y="-8.3" font-family="DejaVu Sans" font-size="8.00" fill="darkslategray">08 • cx&#45;ambient&#45;air&#45;sim&#45;1</text>
</g>
<!-- 06&#45;&gt;08 -->
<g id="edge33" class="edge"><title>06&#45;&gt;08</title>
<path fill="none" stroke="#9acd32" d="M280,-127.641C280,-106.238 280,-59.6352 280,-32.2565"/>
<polygon fill="#9acd32" stroke="#9acd32" points="283.5,-32.1509 280,-22.1509 276.5,-32.151 283.5,-32.1509"/>
<text text-anchor="middle" x="287" y="-68.3" font-family="DejaVu Sans" font-size="8.00" fill="darkslategray"> 08</text>
</g>
</g>
</svg>
